<?xml version="1.0" encoding="UTF-8"?>
<!-- Generator: Adobe Illustrator 15.0.0, SVG Export Plug-In  -->
<!DOCTYPE svg PUBLIC "-//W3C//DTD SVG 1.0//EN" "http://www.w3.org/TR/2001/REC-SVG-20010904/DTD/svg10.dtd" [
	<!ENTITY ns_flows "http://ns.adobe.com/Flows/1.0/">
]>
<svg version="1.0" xmlns="http://www.w3.org/2000/svg" xmlns:xlink="http://www.w3.org/1999/xlink" xmlns:a="http://ns.adobe.com/AdobeSVGViewerExtensions/3.0/" x="0px" y="0px" width="800px" height="800px" viewBox="-15.1 -75.1 800 800" style="enable-background:new -15.1 -75.1 800 800;" xml:space="preserve">
<style type="text/css">
<![CDATA[
	.st0{fill:#ffffff;}
	.st1{opacity:0;fill:#231F20;}
]]>
</style>
<defs>
</defs>
<path class="st0" d="M337.9,439.2l3.9,5c0,0-78,85.5-154,128c-31-0.3-50.7-19.4-50.7-19.4S203,540.1,337.9,439.2z"/>
<path class="st0" d="M432.9,439.2l-3.9,5c0,0,78,85.5,154,128c31-0.3,50.7-19.4,50.7-19.4S567.8,540.1,432.9,439.2z"/>
<path class="st0" d="M346.5,451.7l4.7,3.9c0,0-66.2,112.8-111.8,141.8c-28.9,1.7-63-8.6-63-8.6S234.3,568.1,346.5,451.7z"/>
<path class="st0" d="M424.3,451.7l-4.7,3.9c0,0,66.2,112.8,111.8,141.8c29,1.7,63-8.6,63-8.6S536.5,568.1,424.3,451.7z"/>
<path class="st0" d="M356.2,463.6l4.4,2.5c0,0-24.1,93.6-52.4,139.1c-27.1,8.9-67.3,3.6-67.3,3.6S284.7,587.7,356.2,463.6z"/>
<path class="st0" d="M414.6,463.6l-4.4,2.5c0,0,24.1,93.6,52.4,139.1c27.1,8.9,67.3,3.6,67.3,3.6S486.1,587.7,414.6,463.6z"/>
<path class="st0" d="M385.4,491.9l-0.5,0.5l-15.2-15.8c0,0-34.4,108.9-65.9,153.5c67.6-0.3,81.1-33.8,81.1-33.8s0.1,0.4,0.5,1  c0.3-0.6,0.5-1,0.5-1s13.5,33.5,81.1,33.8C435.4,585.5,401,476.6,401,476.6l-15.2,15.8L385.4,491.9z"/>
<path class="st0" d="M385.4,199c-0.2,0-0.3,0-0.5,0c-114.1,0-117.7,162.6,0,280.4c0.2-0.2,0.3-0.3,0.5-0.5c0.2,0.2,0.3,0.3,0.5,0.5  c117.7-117.7,114.1-280.4,0-280.4C385.7,199,385.5,199,385.4,199z M385.4,358.7l-0.5,0.8l-62.6-100.9l62.6,71.7l0.5-0.5l0.5,0.5  l62.6-71.7l-62.6,100.9L385.4,358.7z"/>
<path class="st0" d="M139.9,208.8c0,0-83.1-10.3-136.3-59c0,0-25.1,163.8,147.9,98.4C147.8,237.2,142.4,221.4,139.9,208.8  L139.9,208.8z"/>
<path class="st0" d="M630.9,208.8c0,0,83.1-10.3,136.3-59c0,0,25.1,163.8-147.9,98.4C622.9,237.2,628.4,221.4,630.9,208.8  L630.9,208.8z"/>
<path class="st0" d="M33.3,274.3c0,0,50.4,116.1,138.6,17.9l-17.3-34.5C143.1,262.6,87.2,284.5,33.3,274.3z"/>
<path class="st0" d="M737.4,274.3c0,0-50.4,116.1-138.6,17.9l17.3-34.5C627.7,262.6,683.6,284.5,737.4,274.3z"/>
<path class="st0" d="M177.1,300.5c0,0-32.4,39.4-85.9,50c0,0,72.6,77.7,106.3-21.6C190,319.7,183.7,312.1,177.1,300.5L177.1,300.5z"/>
<path class="st0" d="M593.6,300.5c0,0,32.4,39.4,85.9,50c0,0-72.6,77.7-106.3-21.6C580.7,319.7,587.1,312.1,593.6,300.5L593.6,300.5  z"/>
<path class="st0" d="M205.3,335.6L205.3,335.6c0,0-9.3,41.9-50.4,59.8c0,0,67.7,34.8,69.3-40.8C216.5,348.2,212.7,344.1,205.3,335.6  z"/>
<path class="st0" d="M565.5,335.6L565.5,335.6c0,0,9.3,41.9,50.4,59.8c0,0-67.7,34.8-69.3-40.8C554.3,348.2,558.1,344.1,565.5,335.6  z"/>
<path class="st0" d="M210.3,410c0,0,49.3,8.8,46.1-33.4c-10-5.4-13.8-8.3-24.2-16.7C231.5,370.5,239.9,387.9,210.3,410z"/>
<path class="st0" d="M560.5,410c0,0-49.3,8.8-46.1-33.4c10-5.4,13.8-8.3,24.2-16.7C539.2,370.5,530.8,387.9,560.5,410z"/>
<path class="st0" d="M263.9,380.3c0,0,8.3,8.4-11.7,30.5c0,0,32.1,10.6,32.5-20.3C278.3,388,271.3,383.9,263.9,380.3L263.9,380.3z"/>
<path class="st0" d="M506.9,380.3c0,0-8.3,8.4,11.7,30.5c0,0-32.1,10.6-32.5-20.3C492.5,388,499.5,383.9,506.9,380.3L506.9,380.3z"/>
<path class="st0" d="M292.9,393.8c0.8,6.7-0.5,10.1-6.8,18.7c0,0,20.7,1.4,19.3-17.1C301.2,394.7,302.3,396.7,292.9,393.8z"/>
<path class="st0" d="M477.9,393.8c-0.8,6.7,0.5,10.1,6.8,18.7c0,0-20.7,1.4-19.3-17.1C469.6,394.7,468.4,396.7,477.9,393.8z"/>
<path class="st0" d="M130.2,147.7L130.2,147.7C128.6,146.3,60.9,81.6,43.4,0c0,0-144.5,147.1,94,198.2"/>
<path class="st0" d="M640.6,147.7L640.6,147.7c1.5-1.4,69.3-66.1,86.8-147.7c0,0,144.5,147.1-94,198.2"/>
<path class="st0" d="M289.4,262.1c0,0-67.5-7.5-149.3-117c17.9,215,163.7,237.5,163.7,237.5S276.1,320.9,289.4,262.1z"/>
<path class="st0" d="M481.4,262.1c0,0,67.5-7.5,149.3-117C612.8,360.1,467,382.6,467,382.6S494.6,320.9,481.4,262.1z"/>
<path class="st1" d="M297.7,259.2c0,0-76.3-8.5-168.9-132.3C140.1,377.1,314,395.4,314,395.4S282.7,325.7,297.7,259.2z"/>
<path class="st1" d="M473.1,259.2c0,0,76.3-8.5,168.9-132.3c-11.2,250.3-185.2,268.6-185.2,268.6S488.1,325.7,473.1,259.2z"/>
</svg>